<?xml version="1.0" encoding="utf-8"?>
<!-- Generator: Adobe Illustrator 27.6.1, SVG Export Plug-In . SVG Version: 6.00 Build 0)  -->
<svg version="1.1" id="Livello_1" xmlns="http://www.w3.org/2000/svg" xmlns:xlink="http://www.w3.org/1999/xlink" x="0px" y="0px"
	 viewBox="0 0 200 36.1" style="enable-background:new 0 0 200 36.1;" xml:space="preserve">
<g>
	<path d="M18.4,14.2L18.4,14.2c4.2-0.6,6.6-2,6.6-6.1c0-5.2-2.9-6.2-6.9-6.2H0v24.8h15.9c6.2,0,9.4-1.2,9.4-6.5
		C25.3,15.5,22.8,14.2,18.4,14.2z M5.5,7.4c0.3,0,2.9,0.2,5,0.4c2.1,0.1,1-1.4,3.2-1.5h3.6c0.3,0,0.5,0.2,0.5,0.5s-0.2,0.5-0.5,0.5
		h-2.6c-0.3,0-0.5,0.2-0.5,0.5c0,0.3,0.2,0.5,0.5,0.5h2.6c0.3,0,0.5,0.2,0.5,0.5c0,0.3-0.2,0.5-0.5,0.5h-2.6c-0.3,0-0.5,0.2-0.5,0.5
		c0,0.3,0.2,0.5,0.5,0.5h2.6c0.3,0,0.5,0.2,0.5,0.5c0,0.3-0.2,0.5-0.5,0.5h-3.6c-2.3-0.2-1.1-1.7-3.2-1.5c-2.2,0.2-4.7,0.4-5,0.4
		c-0.7,0-1.2-0.6-1.2-1.3C4.3,8,4.8,7.4,5.5,7.4z M18,20.8c-0.1,0.1-0.2,0.1-0.3,0.1c0,0-1.2,0-2.6,0.1c-1.4,0.1-3.2,0.1-4.5,0.1
		c-2.5,0-4.7,0.2-5,0.2c-0.7,0-1.2-0.5-1.2-1.2C4.5,19.5,5,19,5.7,19c0.2,0,2.2,0.1,4.1,0.3c1.1,0.1,0.8-1.3,2.1-1.4
		c0.5,0,1.3-0.1,2.1-0.1c1.4,0,2.9,1.2,4.1,2.4C18.2,20.4,18.2,20.7,18,20.8z"/>
	<path d="M40.2,5.1c-7.9,0-12,2.3-12,11c0,8.1,4.2,11.1,12,11.1c7.9,0,12.1-3,12.1-11.1C52.3,7.4,48.2,5.1,40.2,5.1z M40.2,20.7
		c-2.8,0-3.5-1.6-3.5-4.2c0-2.6,0.5-4.2,3.5-4.2c3,0,3.5,1.5,3.5,4.2C43.7,19.1,43.1,20.7,40.2,20.7z"/>
	<path d="M67,5.1c-7.9,0-12,2.3-12,11c0,8.1,4.2,11.1,12,11.1c7.9,0,12.1-3,12.1-11.1C79,7.4,74.9,5.1,67,5.1z M67,20.7
		c-2.8,0-3.5-1.6-3.5-4.2c0-2.6,0.5-4.2,3.5-4.2c3,0,3.5,1.5,3.5,4.2C70.4,19.1,69.8,20.7,67,20.7z"/>
	<path d="M82.5,0.7v25.9h9.1V0.7H82.5z"/>
	<path d="M103,0h-5.2c-1.3,0-1.9,0.4-1.9,1.7v1c0,1.2,0.4,1.6,1.9,1.6h5.2c1.6,0,1.9-0.4,1.9-1.6v-1C104.9,0.4,104.4,0,103,0z
		 M100.4,6.3L100.4,6.3c-3.2,0-4.1-0.3-4.5-0.4v20.6h9.1V5.9C104.6,6.1,103.7,6.3,100.4,6.3z"/>
	<path d="M122.5,5.7l-3,11h-0.1l-3-11h-9.2l6.1,20.9h11.9l6.1-20.9H122.5z"/>
	<path d="M157.2,14.6c0-7.8-4.5-9.6-12.3-9.6c-7.9,0-12,2.3-12,11c0,8.3,4.2,11.1,12,11.1c4.2,0,7.7-0.4,10.6-1.6l0.9-5.2
		c-2.6,0.9-5.6,1.4-8.9,1.4c-3.1,0-5.5-0.5-5.8-2.9h15.4C157.1,17.6,157.2,16.3,157.2,14.6z M141.5,14c0.2-2.2,1.5-3.1,4.3-3.1
		c2.2,0,4.1,0.6,4.4,3.1H141.5z"/>
	<path d="M173.5,5.1c-4,0-4.6,4.5-4.8,6h-0.1V5.7h-8.5v20.9h9.1v-6.8c0-3.4,0.9-4.9,4.8-4.9h1V5.2C174.7,5.2,174.2,5.1,173.5,5.1z"
		/>
	<path d="M190.8,5.7l-2.3,10.6h-0.1l-2.5-10.6h-9.2l5.3,21.5c0.5,1.6,1.7,3,3.3,3.3v0.1h-6.1l0.3,5.5h5.3c3.8,0,6.8-0.6,8-4.5
		L200,5.7H190.8z"/>
</g>
</svg>
